<svg id="Layer_3" enable-background="new 0 0 64 64" height="512" viewBox="0 0 64 64" width="512" xmlns="http://www.w3.org/2000/svg"><path d="m50 1h-36c-4.411 0-8 3.589-8 8v47c0 3.86 3.141 7 7 7h44c.553 0 1-.448 1-1v-53c0-4.411-3.589-8-8-8zm-42 8c0-3.309 2.691-6 6-6h36c3.309 0 6 2.691 6 6v40h-43c-1.957 0-3.729.807-5 2.105zm5 52c-2.757 0-5-2.243-5-5s2.243-5 5-5h43v2h-43c-1.654 0-3 1.346-3 3s1.346 3 3 3h43v2zm43-6v2h-43c-.552 0-1-.449-1-1s.448-1 1-1z"/><path d="m21 26.945v13.055c0 .552.447 1 1 1h20c.553 0 1-.448 1-1v-13.055c4.494-.499 8-4.32 8-8.945 0-4.962-4.037-9-9-9-.795 0-1.574.11-2.331.313-1.584-2.581-4.424-4.313-7.669-4.313s-6.085 1.732-7.669 4.313c-.757-.203-1.536-.313-2.331-.313-4.963 0-9 4.038-9 9 0 4.625 3.506 8.446 8 8.945zm2 12.055v-2h18v2zm-1-28c.498 0 .988.056 1.467.159-.299.894-.467 1.847-.467 2.841h2c0-3.86 3.141-7 7-7s7 3.14 7 7h2c0-.994-.168-1.947-.467-2.841.479-.103.969-.159 1.467-.159 3.859 0 7 3.14 7 7s-3.141 7-7 7c-.553 0-1 .448-1 1v9h-18v-9c0-.552-.447-1-1-1-3.859 0-7-3.14-7-7s3.141-7 7-7z"/><path d="m47 18h-2c0 1.654-1.346 3-3 3v2c2.757 0 5-2.243 5-5z"/><path d="m19 43h26v2h-26z"/></svg>